<svg xmlns="http://www.w3.org/2000/svg" xmlns:xlink="http://www.w3.org/1999/xlink" viewBox="0,0,256,256" width="50px" height="50px"><g fill="#ffffff" fill-rule="nonzero" stroke="none" stroke-width="1" stroke-linecap="butt" stroke-linejoin="miter" stroke-miterlimit="10" stroke-dasharray="" stroke-dashoffset="0" font-family="none" font-weight="none" font-size="none" text-anchor="none" style="mix-blend-mode: normal"><g transform="scale(5.12,5.12)"><path d="M20,4c-5.49219,0 -10,4.50781 -10,10v17.75l-2.875,-2.875l-2.8125,2.84375l7.6875,7.6875l7.6875,-7.6875l-2.8125,-2.8125l-2.875,2.84375v-17.75c0,-3.30859 2.69141,-6 6,-6h11v-4zM38,10.59375l-7.71875,7.71875l2.84375,2.8125l2.875,-2.875v17.75c0,3.30859 -2.69141,6 -6,6h-11v4h11c5.49219,0 10,-4.50781 10,-10v-17.75l2.875,2.875l2.8125,-2.84375z"></path></g></g></svg>